<?xml version="1.0" encoding="utf-8"?>
<!-- Generator: Adobe Illustrator 25.2.1, SVG Export Plug-In . SVG Version: 6.00 Build 0)  -->
<svg version="1.1" id="Layer_1" xmlns="http://www.w3.org/2000/svg" xmlns:xlink="http://www.w3.org/1999/xlink" x="0px" y="0px"
	 viewBox="0 0 3000 3000" style="enable-background:new 0 0 3000 3000;" xml:space="preserve">
<style type="text/css">
	.st0{fill:#038C5E;}
	.st1{fill:#E85329;}
</style>
<g>
	<path class="st0" d="M2171.11,218.56C1525.09,57.63,981.55,317.2,697.27,764.03c-317.65,499.27-278.26,1095.13,77.68,1536.49
		c319.3,395.94,959.86,668.49,1653.93,324.26c-406.22,364.46-1217.94,438.54-1776.35-30.12C91.49,2123.8-18.54,1287.9,402.96,679.91
		C833.99,58.2,1663.11-56.76,2171.11,218.56z"/>
	<path class="st1" d="M832.73,2030.68c-329.4-408.08-247.9-1063.76,167.79-1444.49c411.73-377.11,1086.47-372.49,1487.08,2.01
		c461.74,431.65,454.58,1077.39,153.07,1464.26c203.69-506.31,144.38-951.28-292.74-1292.04
		c-341.3-266.06-799.09-280.78-1142.08-47.05C726.57,1039.96,627.46,1488.42,832.73,2030.68z"/>
	<path class="st0" d="M1137.62,2109.73c363.13,185.85,660.13,166.97,915.23-61.47c229.97-205.94,306.76-532.51,191.63-814.95
		c-134.18-329.17-387.7-462.49-844.56-444.12c327.34-138.75,742.33-2.93,945.35,312c215.43,334.19,146.17,772-164.05,1032.44
		C1872,2393.24,1435.31,2384.69,1137.62,2109.73z"/>
</g>
</svg>
